HIERARCHY
ROOT Hips
{
	OFFSET 0.00000 0.00000 0.00000
	CHANNELS 6 Xposition Yposition Zposition Zrotation Yrotation Xrotation 
	JOINT LHipJoint
	{
		OFFSET 0 0 0
		CHANNELS 3 Zrotation Yrotation Xrotation
		JOINT LeftHip
		{
			OFFSET 1.46561 -1.72757 0.83774
			CHANNELS 3 Zrotation Yrotation Xrotation
			JOINT LeftKnee
			{
				OFFSET 2.48915 -6.83890 0.00000
				CHANNELS 3 Zrotation Yrotation Xrotation
				JOINT LeftAnkle
				{
					OFFSET 2.60555 -7.15868 0.00000
					CHANNELS 3 Zrotation Yrotation Xrotation
					JOINT LeftToe
					{
						OFFSET 0.19248 -0.52884 2.26738
						CHANNELS 3 Zrotation Yrotation Xrotation
						End Site
						{
							OFFSET 0.00000 -0.00000 1.17015
						}
					}
				}
			}
		}
	}
	JOINT RHipJoint
	{
		OFFSET 0 0 0
		CHANNELS 3 Zrotation Yrotation Xrotation
		JOINT RightHip
		{
			OFFSET -1.46918 -1.72757 0.83774
			CHANNELS 3 Zrotation Yrotation Xrotation
			JOINT RightKnee
			{
				OFFSET -2.49034 -6.84216 0.00000
				CHANNELS 3 Zrotation Yrotation Xrotation
				JOINT RightAnkle
				{
					OFFSET -2.65971 -7.30750 0.00000
					CHANNELS 3 Zrotation Yrotation Xrotation
					JOINT RightToe
					{
						OFFSET -0.19227 -0.52827 2.30785
						CHANNELS 3 Zrotation Yrotation Xrotation
						End Site
						{
							OFFSET -0.00000 -0.00000 1.18972
						}
					}
				}
			}
		}
	}
	JOINT lowerback
	{
		OFFSET 0 0 0
		CHANNELS 3 Zrotation Yrotation Xrotation
		JOINT Chest
		{
			OFFSET 0.02432 2.19909 -0.28000
			CHANNELS 3 Zrotation Yrotation Xrotation
			JOINT Chest2
			{
				OFFSET 0.03714 2.21816 -0.15261
				CHANNELS 3 Zrotation Yrotation Xrotation
				JOINT lowerneck
				{
					OFFSET 0 0 0
					CHANNELS 3 Zrotation Yrotation Xrotation
					JOINT Neck
					{
						OFFSET -0.01896 1.56165 0.21681
						CHANNELS 3 Zrotation Yrotation Xrotation
						JOINT Head
						{
							OFFSET 0.02744 1.56009 0.06764
							CHANNELS 3 Zrotation Yrotation Xrotation
							End Site
							{
								OFFSET 0.01212 1.60574 0.00298
							}
						}
					}
				}
				JOINT LeftCollar
				{
					OFFSET 0 0 0
					CHANNELS 3 Zrotation Yrotation Xrotation
					JOINT LeftShoulder
					{
						OFFSET 3.05595 1.48048 -0.60794
CHANNELS 3 Zrotation Xrotation Yrotation
						JOINT LeftElbow
						{
OFFSET 0 -5.206070 -0.000000
CHANNELS 3 Zrotation Xrotation Yrotation
							JOINT LeftWrist
							{
OFFSET 0 -3.399610 0.000000
CHANNELS 3 Zrotation Xrotation Yrotation
								JOINT lhand
								{
									OFFSET 0 0 0
CHANNELS 3 Zrotation Xrotation Yrotation
									JOINT LFingers
									{
OFFSET 0 -0.519690 0.000000
CHANNELS 3 Zrotation Xrotation Yrotation
										End Site
										{
OFFSET 0 -0.418990 0.000000
										}
									}
								}
								JOINT LThumb
								{
OFFSET 0 0.000000 0.000000
CHANNELS 3 Zrotation Xrotation Yrotation
									End Site
									{
OFFSET 0 -0.425390 0.425390
									}
								}
							}
						}
					}
				}
				JOINT RightCollar
				{
					OFFSET 0 0 0
					CHANNELS 3 Zrotation Yrotation Xrotation
					JOINT RightShoulder
					{
						OFFSET -2.99052 1.57608 -0.69102
CHANNELS 3 Zrotation Xrotation Yrotation
						JOINT RightElbow
						{
OFFSET 0 -5.322140 0.000000
CHANNELS 3 Zrotation Xrotation Yrotation
							JOINT RightWrist
							{
OFFSET 0 -3.512080 0.000000
CHANNELS 3 Zrotation Xrotation Yrotation
								JOINT rhand
								{
									OFFSET 0 0 0
CHANNELS 3 Zrotation Xrotation Yrotation
									JOINT RFingers
									{
OFFSET 0 -0.586680 0.000000
CHANNELS 3 Zrotation Xrotation Yrotation
										End Site
										{
OFFSET 0 -0.473000 0.000000
										}
									}
								}
								JOINT RThumb
								{
OFFSET 0 0.000000 0.000000
CHANNELS 3 Zrotation Xrotation Yrotation
									End Site
									{
OFFSET 0 -0.480220 0.480220
									}
								}
							}
						}
					}
				}
			}
		}
	}
}
MOTION
Frames: 4
Frame Time: 0.008333333333333333
0.396492 21.126613 -7.604404 -0.152030 2.087255 9.921385 0.000000 0.000000 0.000000 -14.676606 0.111313 -19.065945 5.111413 13.502402 41.290236 2.200007 7.961635 26.672031 0.087477 1.902915 5.237550 0.000000 0.000000 0.000000 17.676923 1.090498 -17.675864 -5.164354 -13.560672 41.516386 -1.519272 -16.812610 23.440765 -1.990560 -8.846387 25.315925 -2.694697 -1.264876 -1.646589 1.810503 -1.655836 3.232762 3.293668 -0.948226 4.394155 -3.102242 0.602028 -5.532538 1.464035 0.937385 22.710201 1.087551 0.318264 7.879285 0.000000 0.000000 0.000000 4.958296 -15.089069 -31.357445 8.543568 -14.430004 1.083556 24.706093 -11.011476 5.834071 0.000000 0.000000 0.000000 -7.125000 0.000000 0.000000 -1.486738 23.562787 -0.768457 0.000000 0.000000 0.000000 -4.781442 -9.056282 17.007203 -15.475181 -24.803693 -3.422982 -22.970045 43.156261 26.071784 0.000000 0.000000 0.000000 7.125000 0.000000 0.000000 7.756100 57.798688 -2.439627
0.395097 21.299171 -7.493092 -0.266941 2.120323 9.196240 0.000000 0.000000 0.000000 -14.526617 0.124787 -20.168738 5.670167 14.097350 43.636228 2.073951 7.720425 25.878470 0.106283 2.101405 5.786078 0.000000 0.000000 0.000000 17.810088 1.199567 -18.772592 -5.759319 -14.186729 43.999720 -1.479311 -16.154343 23.003946 -1.954546 -8.770505 25.080108 -2.630897 -1.212007 -0.292086 1.881660 -1.616363 3.554662 3.357974 -0.925922 3.958056 -3.110872 0.569631 -5.788951 1.414291 0.913589 22.856379 1.073440 0.300949 7.975903 0.000000 0.000000 0.000000 4.650941 -15.114988 -31.029286 8.454634 -14.287118 1.061527 24.347959 -11.037361 5.640536 0.000000 0.000000 0.000000 -7.125000 0.000000 0.000000 -1.748389 23.793044 -0.894590 0.000000 0.000000 0.000000 -4.608071 -9.189096 16.213006 -15.204614 -24.430204 -3.310260 -22.812875 43.549075 26.163214 0.000000 0.000000 0.000000 7.125000 0.000000 0.000000 7.969253 57.857721 -2.518607
0.394297 21.459539 -7.381786 -0.429818 2.169321 8.508299 0.000000 0.000000 0.000000 -14.329191 0.157780 -21.283999 6.157991 14.578125 45.609463 1.913702 7.366427 24.839374 0.110035 2.138920 5.889738 0.000000 0.000000 0.000000 17.982784 1.269148 -19.962210 -6.337925 -14.745713 46.319048 -1.417532 -15.247607 22.359799 -1.865075 -8.578772 24.486516 -2.493864 -1.164494 1.097238 1.961186 -1.582902 3.841501 3.390186 -0.902955 3.466022 -3.077321 0.541370 -6.022870 1.318414 0.898914 23.001681 1.037281 0.286978 8.068686 0.000000 0.000000 0.000000 4.342369 -15.104502 -30.664261 8.318600 -14.067923 1.028250 24.045267 -10.799131 5.480187 0.000000 0.000000 0.000000 -7.125000 0.000000 0.000000 -1.970599 23.983010 -0.999917 0.000000 0.000000 0.000000 -4.421808 -9.284709 15.450758 -14.932665 -24.052119 -3.198518 -22.663815 43.867401 26.264645 0.000000 0.000000 0.000000 7.125000 0.000000 0.000000 8.178638 57.928571 -2.599300
0.393616 21.605802 -7.270615 -0.607012 2.230918 7.944637 0.000000 0.000000 0.000000 -14.128890 0.180611 -22.490293 6.563996 14.953282 47.204985 1.730473 7.028234 23.597304 0.103676 2.076142 5.716019 0.000000 0.000000 0.000000 18.162961 1.352170 -21.331199 -6.890774 -15.238892 48.459481 -1.324973 -14.307690 21.496079 -1.771582 -8.373119 23.853325 -2.326399 -1.130359 2.422663 2.042485 -1.560978 4.071470 3.406158 -0.883738 2.953497 -3.021952 0.519299 -6.273322 1.209675 0.893304 23.182514 0.994126 0.277508 8.176796 0.000000 0.000000 0.000000 4.037269 -15.064034 -30.239398 8.131457 -13.765662 0.983195 23.826185 -10.250174 5.413455 0.000000 0.000000 0.000000 -7.125000 0.000000 0.000000 -2.132486 24.065908 -1.078242 0.000000 0.000000 0.000000 -4.229533 -9.345664 14.765748 -14.666732 -23.679735 -3.090819 -22.546844 44.118792 26.350739 0.000000 0.000000 0.000000 7.125000 0.000000 0.000000 8.346594 57.990682 -2.665593
